<svg width="32" height="32" viewBox="0 0 32 32" fill="none" xmlns="http://www.w3.org/2000/svg">
<path d="M24.056 23.5004L23.5004 24.056C23.1935 24.3628 22.696 24.3628 22.3892 24.056L16 17.6668L9.61078 24.056C9.30394 24.3628 8.80645 24.3628 8.49961 24.056L7.94403 23.5004C7.63719 23.1936 7.63719 22.6961 7.94403 22.3892L14.3332 16L7.94403 9.61081C7.63719 9.30397 7.63719 8.80648 7.94403 8.49964L8.49961 7.94406C8.80645 7.63721 9.30394 7.63721 9.61078 7.94406L16 14.3333L22.3892 7.94404C22.6961 7.6372 23.1935 7.6372 23.5004 7.94404L24.056 8.49963C24.3628 8.80647 24.3628 9.30395 24.056 9.61079L17.6667 16L24.056 22.3892C24.3628 22.6961 24.3628 23.1936 24.056 23.5004Z" fill="black"/>
</svg>
