<svg width="240" height="96" viewBox="0 0 240 96" fill="none" xmlns="http://www.w3.org/2000/svg">
<path d="M3.5805 11.1858L0.186 10.4914V7.0194H7.44C8.463 7.0194 9.8425 6.95326 11.5785 6.821C11.9815 6.78793 12.586 6.75486 13.392 6.7218C14.229 6.68873 14.973 6.67219 15.624 6.67219C21.266 6.67219 25.513 8.17673 28.365 11.1858C31.217 14.1949 32.643 18.5101 32.643 24.1314C32.643 28.0002 31.9455 31.4557 30.5505 34.4978C29.1555 37.5399 27.156 39.9373 24.552 41.6898C21.948 43.4093 18.879 44.269 15.345 44.269C14.384 44.269 12.9425 44.2029 11.0205 44.0706C9.2225 43.9383 8.06 43.8722 7.533 43.8722H0V40.5986L3.5805 40.053V11.1858ZM11.439 40.2018C12.524 40.5655 13.764 40.7143 15.159 40.6482C17.949 40.6151 20.1035 39.3586 21.6225 36.8786C23.1725 34.3655 23.9475 30.5298 23.9475 25.3714C23.9475 20.6098 23.188 16.8898 21.669 14.2114C20.181 11.4999 17.825 10.1442 14.601 10.1442C13.857 10.1442 13.1905 10.1938 12.6015 10.293C12.0125 10.3922 11.625 10.4583 11.439 10.4914V40.2018Z" fill="#F3D250"/>
<path d="M47.8343 44.4178C43.5873 44.4178 40.4408 43.1447 38.3948 40.5986C36.3488 38.0194 35.3258 34.5143 35.3258 30.0834C35.3258 27.0743 35.8528 24.4786 36.9068 22.2962C37.9608 20.1138 39.4333 18.4605 41.3243 17.3362C43.2463 16.1789 45.4938 15.6002 48.0668 15.6002C51.3218 15.6002 53.8018 16.4765 55.5068 18.229C57.2428 19.9815 58.1418 22.4615 58.2038 25.669C58.2038 27.7853 58.0643 29.4882 57.7853 30.7778H43.2308C43.3858 33.5885 44.0213 35.7378 45.1373 37.2258C46.2843 38.6807 47.8808 39.4082 49.9268 39.4082C51.0738 39.4082 52.2673 39.2098 53.5073 38.813C54.7783 38.3831 55.8013 37.9037 56.5763 37.3746L57.8783 40.4002C57.0723 41.3591 55.6928 42.2685 53.7398 43.1282C51.8178 43.9879 49.8493 44.4178 47.8343 44.4178ZM50.8103 27.5042L50.8568 25.421C50.8568 23.3378 50.5933 21.7506 50.0663 20.6594C49.5393 19.5682 48.6403 19.0226 47.3693 19.0226C46.0673 19.0226 45.0598 19.6343 44.3468 20.8578C43.6338 22.0482 43.2463 24.2637 43.1843 27.5042H50.8103Z" fill="#F3D250"/>
<path d="M61.0734 30.2818C61.0734 27.3389 61.6314 24.7597 62.7474 22.5442C63.8634 20.3287 65.4289 18.6258 67.4439 17.4354C69.4589 16.2119 71.7839 15.6002 74.4189 15.6002C75.7209 15.6002 76.8369 15.6994 77.7669 15.8978C78.7279 16.0631 79.7044 16.3111 80.6964 16.6418C81.5954 16.9063 82.1534 17.0551 82.3704 17.0882L82.0449 26.0658H77.3484L76.1394 20.3618C76.0464 19.9319 75.7829 19.6343 75.3489 19.469C74.9459 19.2706 74.4499 19.1714 73.8609 19.1714C72.4039 19.1714 71.2569 19.9319 70.4199 21.453C69.6139 22.9741 69.2109 25.5037 69.2109 29.0418C69.2109 32.4146 69.7224 35.0103 70.7454 36.829C71.7994 38.6146 73.2099 39.5074 74.9769 39.5074C77.2709 39.5074 79.3789 38.8791 81.3009 37.6226L82.5564 40.549C81.8124 41.4418 80.5879 42.3181 78.8829 43.1778C77.1779 44.0045 75.2869 44.4178 73.2099 44.4178C69.1489 44.4178 66.1109 43.1447 64.0959 40.5986C62.0809 38.0194 61.0734 34.5805 61.0734 30.2818Z" fill="#F3D250"/>
<path d="M97.9217 44.4178C93.6747 44.4178 90.5282 43.1447 88.4822 40.5986C86.4362 38.0194 85.4132 34.5143 85.4132 30.0834C85.4132 27.0743 85.9402 24.4786 86.9942 22.2962C88.0482 20.1138 89.5207 18.4605 91.4117 17.3362C93.3337 16.1789 95.5812 15.6002 98.1542 15.6002C101.409 15.6002 103.889 16.4765 105.594 18.229C107.33 19.9815 108.229 22.4615 108.291 25.669C108.291 27.7853 108.152 29.4882 107.873 30.7778H93.3182C93.4732 33.5885 94.1087 35.7378 95.2247 37.2258C96.3717 38.6807 97.9682 39.4082 100.014 39.4082C101.161 39.4082 102.355 39.2098 103.595 38.813C104.866 38.3831 105.889 37.9037 106.664 37.3746L107.966 40.4002C107.16 41.3591 105.78 42.2685 103.827 43.1282C101.905 43.9879 99.9367 44.4178 97.9217 44.4178ZM100.898 27.5042L100.944 25.421C100.944 23.3378 100.681 21.7506 100.154 20.6594C99.6267 19.5682 98.7277 19.0226 97.4567 19.0226C96.1547 19.0226 95.1472 19.6343 94.4342 20.8578C93.7212 22.0482 93.3337 24.2637 93.2717 27.5042H100.898Z" fill="#F3D250"/>
<path d="M137.898 29.1906C137.898 31.9351 137.356 34.4647 136.271 36.7794C135.217 39.0941 133.636 40.9458 131.528 42.3346C129.451 43.7234 126.94 44.4178 123.995 44.4178C123.499 44.4178 122.956 44.3682 122.367 44.269C121.809 44.1698 121.375 44.0541 121.065 43.9218L121.205 47.9394V52.1554L125.204 52.8002V55.8754H110.928V52.8002L113.765 52.1554V21.5026L110.928 20.6098V16.741L119.252 15.6498H119.345L120.6 16.6914V19.3698C121.313 18.3447 122.305 17.4685 123.576 16.741C124.878 15.9805 126.289 15.6002 127.808 15.6002C130.784 15.6002 133.202 16.7245 135.062 18.973C136.953 21.1885 137.898 24.5943 137.898 29.1906ZM125.064 20.1634C124.258 20.1634 123.499 20.3453 122.786 20.709C122.073 21.0397 121.546 21.453 121.205 21.949V40.1026C121.422 40.4002 121.794 40.6482 122.321 40.8466C122.879 41.045 123.483 41.1442 124.134 41.1442C125.87 41.1442 127.25 40.2514 128.273 38.4658C129.327 36.6802 129.854 33.7869 129.854 29.7858C129.854 26.5453 129.42 24.1314 128.552 22.5442C127.684 20.957 126.521 20.1634 125.064 20.1634Z" fill="#F3D250"/>
<path d="M149.274 44.3186C147.228 44.3186 145.709 43.8226 144.717 42.8306C143.756 41.8055 143.276 40.2349 143.276 38.1186V20.461H140.439V17.5842L141.369 17.1874C142.113 16.9229 142.764 16.6418 143.322 16.3442C143.942 15.7159 144.438 14.8893 144.81 13.8642C145.275 12.6738 145.787 11.0039 146.345 8.8546H150.669L150.948 16.2946H157.598V20.461H151.041V33.605C151.041 35.4237 151.088 36.6967 151.181 37.4242C151.274 38.1517 151.444 38.6311 151.692 38.8626C151.971 39.061 152.467 39.1602 153.18 39.1602C154.637 39.1602 156.017 38.8957 157.319 38.3666L158.295 41.4914C157.427 42.2519 156.141 42.9133 154.436 43.4754C152.731 44.0375 151.01 44.3186 149.274 44.3186Z" fill="#F3D250"/>
<path d="M166.07 12.029C164.861 12.029 163.885 11.6487 163.141 10.8882C162.397 10.1277 162.025 9.1522 162.025 7.9618C162.025 6.573 162.428 5.4322 163.234 4.5394C164.071 3.6466 165.187 3.2002 166.582 3.2002C167.977 3.2002 169.046 3.58046 169.79 4.341C170.534 5.10153 170.906 6.077 170.906 7.2674C170.906 8.68926 170.488 9.84659 169.651 10.7394C168.814 11.5991 167.636 12.029 166.117 12.029H166.07ZM163.234 21.5026L160.118 20.5602V16.8402L169.418 15.6498H169.511L170.953 16.6914V40.1522L173.743 40.5986V43.8722H160.351V40.5986L163.234 40.1522V21.5026Z" fill="#F3D250"/>
<path d="M174.601 16.2946H187.807V19.469L184.877 20.0642L188.783 33.1586L189.992 37.6722L190.969 33.2082L194.828 20.0642L191.992 19.469V16.2946H202.733V19.469L200.315 20.0642L191.852 44.269H185.621L176.414 20.0642L174.601 19.469V16.2946Z" fill="#F3D250"/>
<path d="M215.625 44.4178C211.378 44.4178 208.231 43.1447 206.185 40.5986C204.139 38.0194 203.116 34.5143 203.116 30.0834C203.116 27.0743 203.643 24.4786 204.697 22.2962C205.751 20.1138 207.224 18.4605 209.115 17.3362C211.037 16.1789 213.284 15.6002 215.857 15.6002C219.112 15.6002 221.592 16.4765 223.297 18.229C225.033 19.9815 225.932 22.4615 225.994 25.669C225.994 27.7853 225.855 29.4882 225.576 30.7778H211.021C211.176 33.5885 211.812 35.7378 212.928 37.2258C214.075 38.6807 215.671 39.4082 217.717 39.4082C218.864 39.4082 220.058 39.2098 221.298 38.813C222.569 38.3831 223.592 37.9037 224.367 37.3746L225.669 40.4002C224.863 41.3591 223.483 42.2685 221.53 43.1282C219.608 43.9879 217.64 44.4178 215.625 44.4178ZM218.601 27.5042L218.647 25.421C218.647 23.3378 218.384 21.7506 217.857 20.6594C217.33 19.5682 216.431 19.0226 215.16 19.0226C213.858 19.0226 212.85 19.6343 212.137 20.8578C211.424 22.0482 211.037 24.2637 210.975 27.5042H218.601Z" fill="#F3D250"/>
<path d="M3.5805 57.1393L0.1395 56.4449V52.9729H7.719C8.215 52.9729 9.176 52.9398 10.602 52.8737C12.4 52.7414 14.0275 52.6753 15.4845 52.6753C18.8325 52.6753 21.4675 53.1052 23.3895 53.9649C25.3115 54.8246 26.6755 56.0646 27.4815 57.6849C28.2875 59.2721 28.6905 61.2892 28.6905 63.7361C28.6905 67.9686 27.4815 71.2588 25.0635 73.6065C22.6455 75.9542 19.2045 77.1281 14.7405 77.1281C13.3455 77.1281 12.276 77.0785 11.532 76.9793V86.0065L17.67 86.5521V89.8257H0V86.5521L3.5805 86.0561V57.1393ZM11.4855 73.5569C12.1055 73.7222 13.1285 73.8049 14.5545 73.8049C18.5845 73.8049 20.5995 70.5148 20.5995 63.9345C20.5995 61.19 20.088 59.1894 19.065 57.9329C18.073 56.6433 16.5695 55.9985 14.5545 55.9985C13.6865 55.9985 13.0045 56.0481 12.5085 56.1473C12.0125 56.2134 11.6715 56.263 11.4855 56.2961V73.5569Z" fill="white"/>
<path d="M30.735 81.8897C30.735 78.9798 32.1145 76.7478 34.8735 75.1937C37.6635 73.6396 41.3215 72.846 45.8475 72.8129V71.8209C45.8475 70.6305 45.7235 69.6881 45.4755 68.9937C45.2275 68.2993 44.778 67.7868 44.127 67.4561C43.476 67.0924 42.515 66.9105 41.244 66.9105C39.725 66.9105 38.361 67.1089 37.152 67.5057C35.974 67.8694 34.734 68.3654 33.432 68.9937L31.851 65.4225C32.347 64.9926 33.153 64.4801 34.269 63.8849C35.385 63.2566 36.718 62.7276 38.268 62.2977C39.849 61.8348 41.492 61.6033 43.197 61.6033C45.677 61.6033 47.6145 61.9505 49.0095 62.6449C50.4355 63.3393 51.4431 64.414 52.0321 65.8689C52.6521 67.3238 52.962 69.3078 52.962 71.8209V86.5521H55.38V89.6769C54.667 89.8422 53.675 90.0076 52.404 90.1729C51.133 90.3382 50.048 90.4209 49.149 90.4209C47.971 90.4209 47.1805 90.239 46.7775 89.8753C46.4055 89.5116 46.2195 88.7841 46.2195 87.6929V86.5521C45.4445 87.5441 44.406 88.4369 43.104 89.2305C41.802 89.991 40.2985 90.3713 38.5935 90.3713C37.1365 90.3713 35.8035 90.0406 34.5945 89.3793C33.4165 88.6849 32.471 87.7094 31.758 86.4529C31.076 85.1633 30.735 83.6422 30.735 81.8897ZM42.2205 85.8081C42.7785 85.8081 43.3985 85.6428 44.0805 85.3121C44.7625 84.9484 45.3515 84.5185 45.8475 84.0225V76.1361C43.4295 76.1361 41.6315 76.599 40.4535 77.5249C39.3065 78.4508 38.733 79.6412 38.733 81.0961C38.733 82.5841 39.043 83.7414 39.663 84.5681C40.283 85.3948 41.1355 85.8081 42.2205 85.8081Z" fill="white"/>
<path d="M65.7641 90.2721C63.7181 90.2721 62.1991 89.7761 61.2071 88.7841C60.2461 87.759 59.7656 86.1884 59.7656 84.0721V66.4145H56.9291V63.5377L57.8591 63.1409C58.6031 62.8764 59.2541 62.5953 59.8121 62.2977C60.4321 61.6694 60.9281 60.8428 61.3001 59.8177C61.7651 58.6273 62.2766 56.9574 62.8346 54.8081H67.1591L67.4381 62.2481H74.0876V66.4145H67.5311V79.5585C67.5311 81.3772 67.5776 82.6502 67.6706 83.3777C67.7636 84.1052 67.9341 84.5846 68.1821 84.8161C68.4611 85.0145 68.9571 85.1137 69.6701 85.1137C71.1271 85.1137 72.5066 84.8492 73.8086 84.3201L74.7851 87.4449C73.9171 88.2054 72.6306 88.8668 70.9256 89.4289C69.2206 89.991 67.5001 90.2721 65.7641 90.2721Z" fill="white"/>
<path d="M84.7455 90.2721C82.6995 90.2721 81.1805 89.7761 80.1885 88.7841C79.2275 87.759 78.747 86.1884 78.747 84.0721V66.4145H75.9105V63.5377L76.8405 63.1409C77.5845 62.8764 78.2355 62.5953 78.7935 62.2977C79.4135 61.6694 79.9095 60.8428 80.2815 59.8177C80.7465 58.6273 81.258 56.9574 81.816 54.8081H86.1405L86.4195 62.2481H93.069V66.4145H86.5125V79.5585C86.5125 81.3772 86.559 82.6502 86.652 83.3777C86.745 84.1052 86.9155 84.5846 87.1635 84.8161C87.4425 85.0145 87.9385 85.1137 88.6515 85.1137C90.1085 85.1137 91.488 84.8492 92.79 84.3201L93.7665 87.4449C92.8985 88.2054 91.612 88.8668 89.907 89.4289C88.202 89.991 86.4815 90.2721 84.7455 90.2721Z" fill="white"/>
<path d="M107.865 90.3713C103.618 90.3713 100.472 89.0982 98.426 86.5521C96.38 83.9729 95.357 80.4678 95.357 76.0369C95.357 73.0278 95.884 70.4321 96.938 68.2497C97.992 66.0673 99.4645 64.414 101.355 63.2897C103.277 62.1324 105.525 61.5537 108.098 61.5537C111.353 61.5537 113.833 62.43 115.538 64.1825C117.274 65.935 118.173 68.415 118.235 71.6225C118.235 73.7388 118.095 75.4417 117.816 76.7313H103.262C103.417 79.542 104.052 81.6913 105.168 83.1793C106.315 84.6342 107.912 85.3617 109.958 85.3617C111.105 85.3617 112.298 85.1633 113.538 84.7665C114.809 84.3366 115.832 83.8572 116.607 83.3281L117.909 86.3537C117.103 87.3126 115.724 88.222 113.771 89.0817C111.849 89.9414 109.88 90.3713 107.865 90.3713ZM110.841 73.4577L110.888 71.3745C110.888 69.2913 110.624 67.7041 110.097 66.6129C109.57 65.5217 108.671 64.9761 107.4 64.9761C106.098 64.9761 105.091 65.5878 104.378 66.8113C103.665 68.0017 103.277 70.2172 103.215 73.4577H110.841Z" fill="white"/>
<path d="M121.663 86.5521L124.499 86.1057V67.4561L121.756 66.5633V62.6945L129.475 61.6033H129.614L130.916 62.6449V63.8353L130.777 67.9521H130.916C131.133 67.1916 131.629 66.3153 132.404 65.3233C133.179 64.2982 134.156 63.422 135.334 62.6945C136.543 61.934 137.845 61.5537 139.24 61.5537C140.046 61.5537 140.666 61.6694 141.1 61.9009V70.5313C140.604 70.1345 140.061 69.8204 139.472 69.5889C138.914 69.3574 138.186 69.2417 137.287 69.2417C136.171 69.2417 135.163 69.407 134.264 69.7377C133.365 70.0353 132.652 70.3825 132.125 70.7793V86.1057L137.24 86.6017V89.8257H121.663V86.5521Z" fill="white"/>
<path d="M146.562 67.4561L143.818 66.5633V62.6945L152.281 61.6033H152.421L153.63 62.6449V64.4801L153.583 65.6209C154.668 64.5297 156.048 63.6038 157.722 62.8433C159.396 62.0828 161.147 61.7025 162.976 61.7025C164.836 61.7025 166.293 62.0662 167.347 62.7937C168.432 63.4881 169.207 64.6124 169.672 66.1665C170.168 67.7206 170.416 69.8369 170.416 72.5153V86.1057L173.02 86.5025V89.8257H160.372V86.5521L162.651 86.1057V72.5649C162.651 70.9777 162.542 69.7542 162.325 68.8945C162.139 68.0017 161.798 67.3569 161.302 66.9601C160.806 66.5633 160.093 66.3649 159.163 66.3649C157.737 66.3649 156.125 67.0758 154.327 68.4977V86.1057L156.885 86.5521V89.8257H144.004V86.5521L146.562 86.1057V67.4561Z" fill="white"/>
<path d="M181.921 85.7089C182.138 86.0726 182.634 86.4033 183.409 86.7009C184.215 86.9985 185.021 87.1473 185.827 87.1473C187.098 87.1473 188.059 86.8662 188.71 86.3041C189.392 85.7089 189.733 84.9484 189.733 84.0225C189.733 83.0305 189.299 82.2204 188.431 81.5921C187.563 80.9308 186.137 80.1372 184.153 79.2113L182.386 78.3681C180.371 77.4092 178.852 76.2518 177.829 74.8961C176.837 73.5073 176.341 71.7548 176.341 69.6385C176.341 68.1174 176.759 66.7617 177.596 65.5713C178.433 64.3478 179.642 63.3889 181.223 62.6945C182.804 62.0001 184.664 61.6529 186.803 61.6529C188.291 61.6529 189.578 61.7521 190.663 61.9505C191.748 62.1489 192.848 62.3969 193.964 62.6945C194.708 62.926 195.266 63.0582 195.638 63.0913V69.8369H191.5L190.291 66.0177C190.136 65.7201 189.764 65.4556 189.175 65.2241C188.586 64.9596 187.919 64.8273 187.175 64.8273C185.997 64.8273 185.067 65.1084 184.385 65.6705C183.703 66.1996 183.362 66.927 183.362 67.8529C183.362 68.911 183.75 69.7542 184.525 70.3825C185.3 70.9777 186.54 71.6886 188.245 72.5153L189.221 72.9617C191.732 74.086 193.701 75.3094 195.127 76.6321C196.553 77.9217 197.266 79.7073 197.266 81.9889C197.266 84.4358 196.351 86.4529 194.522 88.0401C192.693 89.5942 189.996 90.3713 186.431 90.3713C184.788 90.3713 183.331 90.2225 182.06 89.9249C180.789 89.6604 179.394 89.2966 177.875 88.8337L176.341 88.3873V81.7905H180.758L181.921 85.7089Z" fill="white"/>
</svg>
