<svg width="16" height="16" viewBox="0 0 16 16" fill="none" xmlns="http://www.w3.org/2000/svg">
<path d="M12.0601 6.81333L7.39346 14.4267C7.30188 14.5746 7.14079 14.6652 6.96679 14.6667H6.83346C6.74008 14.6665 6.65089 14.6279 6.5868 14.56C6.52304 14.4918 6.49149 14.3996 6.50012 14.3067L6.87346 10H4.49346C4.31439 9.99807 4.14965 9.90176 4.06012 9.74667L3.93346 9.52668C3.86983 9.42228 3.86983 9.29107 3.93346 9.18667L8.60012 1.57333C8.69418 1.42131 8.86139 1.33011 9.04012 1.33333H9.17346C9.26684 1.33351 9.35604 1.37208 9.42012 1.44C9.48388 1.50818 9.51543 1.60039 9.50679 1.69333L9.12679 6H11.5068C11.6858 6.00193 11.8506 6.09825 11.9401 6.25333L12.0668 6.47333C12.1283 6.57898 12.1258 6.71018 12.0601 6.81333Z" fill="black"/>
</svg>
